<?xml version="1.0" encoding="UTF-8"?>
<!DOCTYPE svg PUBLIC "-//W3C//DTD SVG 1.1//EN" "http://www.w3.org/Graphics/SVG/1.1/DTD/svg11.dtd">
<!-- Creator: CorelDRAW X5 -->
<svg xmlns="http://www.w3.org/2000/svg" xml:space="preserve" width="2048px" height="2048px" style="shape-rendering:geometricPrecision; text-rendering:geometricPrecision; image-rendering:optimizeQuality; fill-rule:evenodd; clip-rule:evenodd"
viewBox="0 0 2048 2048"
 xmlns:xlink="http://www.w3.org/1999/xlink">
 <defs>
  <style type="text/css">
   <![CDATA[
    .fil5 {fill:none}
    .fil2 {fill:#37474F}
    .fil0 {fill:#9C0000}
    .fil3 {fill:#BF0000}
    .fil4 {fill:#D50000}
    .fil1 {fill:#E8E8D0}
   ]]>
  </style>
 </defs>
 <g id="Layer_x0020_1">
  <metadata id="CorelCorpID_0Corel-Layer"/>
  <path class="fil0" d="M1800 934l0 779c0,13 -11,23 -23,23l-1489 0c-13,0 -23,-11 -23,-23l0 -779 0 0 728 -505c22,-15 60,-14 83,2l726 503 -1 0z"/>
  <rect class="fil1" x="392" y="576" width="1280" height="838"/>
  <path class="fil2" d="M1121 1200c-30,35 -72,59 -119,59 -3,0 -6,0 -10,0 -43,-3 -79,-26 -104,-61 -24,-33 -36,-73 -38,-113l0 0 0 -15c0,-6 0,-12 1,-18 4,-51 22,-102 55,-141 31,-36 73,-62 122,-62 3,0 6,0 10,0 37,3 70,21 94,48l3 -48 58 3 -19 309c-1,16 5,30 18,39 7,5 15,6 23,6 47,-2 85,-42 103,-83 20,-44 26,-104 14,-150 0,-1 0,-1 0,-2 -14,-51 -41,-98 -79,-136 -57,-57 -134,-89 -216,-89 -81,0 -158,32 -216,89 -57,57 -89,134 -89,216 0,81 32,158 89,216 57,57 134,89 216,89 65,0 128,-20 180,-59l23 -17 0 72 -7 4c-59,38 -127,58 -197,58 -97,0 -188,-38 -257,-106 -68,-68 -106,-160 -106,-257 0,-97 38,-188 106,-257 68,-68 160,-106 257,-106 97,0 188,38 257,106 45,45 77,101 94,162 0,1 0,1 0,1 13,59 9,130 -16,185 -28,62 -84,118 -156,121 -21,1 -41,-4 -58,-16 -18,-12 -29,-30 -36,-49zm-213 -125c1,31 9,63 27,88 15,20 36,35 62,37 2,0 4,0 5,0 31,0 58,-18 77,-41 25,-30 39,-69 42,-108 0,-5 0,-10 0,-14l0 -5c-1,-31 -9,-63 -27,-88 -15,-20 -36,-35 -62,-37 -2,0 -4,0 -5,0 -31,0 -58,18 -77,41 -25,30 -39,69 -42,108 0,5 0,10 0,14l0 5z"/>
  <path class="fil3" d="M268 1725l608 -416 -612 -375 0 778c0,5 1,9 4,12z"/>
  <path class="fil3" d="M1800 1713l0 -779 -1 0 -616 378 613 413c2,-4 4,-8 4,-12z"/>
  <path class="fil4" d="M1797 1725c-4,7 -12,11 -20,11l-1489 0c-8,0 -16,-4 -20,-11l724 -503c22,-15 59,-14 83,2l722 501z"/>
  <rect class="fil5" width="2048" height="2048"/>
 </g>
</svg>
